<?xml version="1.0" encoding="utf-8"?>
<!-- Generator: Adobe Illustrator 25.2.1, SVG Export Plug-In . SVG Version: 6.00 Build 0)  -->
<svg version="1.1" id="Calque_1" xmlns="http://www.w3.org/2000/svg" xmlns:xlink="http://www.w3.org/1999/xlink" x="0px" y="0px"
	 viewBox="0 0 158.5 178.3" style="enable-background:new 0 0 158.5 178.3;" xml:space="preserve">
<style type="text/css">
	.st0{fill:#AE8964;}
	.st1{fill:#ABABAB;}
	.st2{fill:none;}
	.st3{enable-background:new    ;}
</style>
<g>
	<path class="st0" d="M9.7,7.1c46.4,0,92.4,0,138.9,0c0,22.8,0,45.5,0,68.6c-2.5,0-5.1,0-8.1,0c0-19.8,0-39.5,0-59.7
		c-40.8,0-81.2,0-122.1,0c0,19.7,0,39.6,0,59.8c-3.2,0-5.8,0-8.6,0C9.7,52.9,9.7,30.3,9.7,7.1z"/>
	<path class="st0" d="M48.6,131.9c-3.7-2.4-7.4-4.9-11.2-7.3c-3.9-2.5-8.3-4.4-8.1-11.2c11.6,4.7,24.1,5.6,34,13.3
		c9,7,14.3,16.1,13.7,28c-0.2,4.1,0,8.2,0,13c-2.4-1.3-4.1-2.2-5.8-3.2c-14.7-8.6-29.1-17.5-44.1-25.6c-11.1-6-16.9-14.8-17.5-27.1
		c-0.4-8.1-0.1-16.2-0.1-24.7c4.9,2.2,7.5,5.6,8.5,10.2c1.1,4.7,2,9.5,2.9,14.2c1,5,3.7,8.8,8.2,11.4c6.1,3.5,12.2,7.1,18.3,10.6
		C47.9,133,48.2,132.5,48.6,131.9z"/>
	<path class="st0" d="M129.9,115.3c-1.7,2.3-3.1,5.1-5.3,6.9c-3.1,2.5-6.8,4.1-10.2,6.3c-1.6,1.1-3,2.6-4.5,3.9
		c0.3,0.4,0.7,0.9,1,1.3c7.3-4.5,14.8-8.6,21.7-13.7c2.4-1.7,3.6-5.5,4.5-8.6c1.4-4.6,1.9-9.4,3-14.2c1-4.6,3.9-7.8,7.7-10
		c0.6,0.2,1.2,0.3,1.8,0.5c-0.9,11-1.3,22.1-2.8,33c-0.9,6.6-5.3,11.9-11.1,15.3c-17.3,10.2-34.8,20.3-52.2,30.5
		c-0.5,0.3-1.1,0.4-1.8,0.7c-3.2-22.1,3.8-37.7,20.5-44.9c8.4-3.6,17.3-5.8,26-8.7C128.9,114.3,129.4,114.8,129.9,115.3z"/>
	<g>
		<path class="st1" d="M31.5,102.1H45c0.5,0,1,0.2,1.3,0.5c0.5,0.5,0.7,1.1,0.7,1.9c0,1-0.3,1.7-1,2.1c-0.3,0.2-0.6,0.3-1,0.3H28.3
			c-2.1,0-3.2-0.9-3.2-2.8c0-1.2,0.6-2.5,1.7-3.9c1.5-1.7,4.3-4.3,8.5-7.7c1.9-1.6,3.2-2.8,4-3.7c0.9-1.1,1.4-2.2,1.4-3.3
			c0-1.3-0.6-2.4-1.7-3.1c-0.9-0.6-1.9-0.9-3.1-0.9c-2.3,0-4.1,1.1-5.2,3.2c-0.5,1-1.3,1.4-2.3,1.4c-0.5,0-0.9-0.1-1.3-0.4
			c-0.8-0.4-1.2-1.1-1.2-2s0.4-1.8,1.1-2.8c0.8-1,1.8-1.9,3-2.5c1.8-1,3.8-1.5,6-1.5c2.4,0,4.5,0.6,6.3,1.7c2.6,1.6,3.9,3.9,3.9,6.8
			c0,2-0.7,3.9-2.1,5.5c-0.9,1-2.6,2.5-5.2,4.5C35.7,98,33.3,100.1,31.5,102.1z"/>
		<path class="st1" d="M64.4,77c3.8,0,6.7,1.6,8.8,4.9c1.8,2.7,2.6,6.1,2.6,10.3c0,3.7-0.7,6.9-2,9.4c-0.9,1.7-2,3-3.3,4
			c-1.8,1.3-3.9,2-6.2,2c-3.8,0-6.8-1.6-8.9-4.9c-1.7-2.7-2.6-6.2-2.6-10.5c0-4.5,1-8.1,3-10.8C58,78.5,60.8,77,64.4,77z M64.4,81.5
			c-1.7,0-3.1,0.9-4.2,2.7c-1.2,2-1.8,4.6-1.8,8.1c0,2.6,0.4,4.8,1.1,6.6c1.1,2.7,2.8,4,5,4c1.6,0,2.9-0.7,4-2.2
			c1.4-1.9,2-4.7,2-8.4c0-3.5-0.6-6.2-1.8-8.1C67.5,82.4,66.1,81.5,64.4,81.5z"/>
		<path class="st1" d="M88.1,102.1h13.5c0.5,0,1,0.2,1.3,0.5c0.5,0.5,0.7,1.1,0.7,1.9c0,1-0.3,1.7-1,2.1c-0.3,0.2-0.6,0.3-1,0.3
			H84.9c-2.1,0-3.2-0.9-3.2-2.8c0-1.2,0.6-2.5,1.7-3.9c1.5-1.7,4.3-4.3,8.5-7.7c1.9-1.6,3.2-2.8,4-3.7c0.9-1.1,1.4-2.2,1.4-3.3
			c0-1.3-0.6-2.4-1.7-3.1c-0.9-0.6-1.9-0.9-3.1-0.9c-2.3,0-4.1,1.1-5.2,3.2c-0.5,1-1.3,1.4-2.3,1.4c-0.5,0-0.9-0.1-1.3-0.4
			c-0.8-0.4-1.2-1.1-1.2-2s0.4-1.8,1.1-2.8c0.8-1,1.8-1.9,3-2.5c1.8-1,3.8-1.5,6-1.5c2.4,0,4.5,0.6,6.3,1.7c2.6,1.6,3.9,3.9,3.9,6.8
			c0,2-0.7,3.9-2.1,5.5c-0.9,1-2.6,2.5-5.2,4.5C92.4,98,89.9,100.1,88.1,102.1z"/>
		<path class="st1" d="M116.4,102.1h13.5c0.5,0,1,0.2,1.3,0.5c0.5,0.5,0.7,1.1,0.7,1.9c0,1-0.3,1.7-1,2.1c-0.3,0.2-0.6,0.3-1,0.3
			h-16.6c-2.1,0-3.2-0.9-3.2-2.8c0-1.2,0.6-2.5,1.7-3.9c1.5-1.7,4.3-4.3,8.5-7.7c1.9-1.6,3.2-2.8,4-3.7c0.9-1.1,1.4-2.2,1.4-3.3
			c0-1.3-0.6-2.4-1.7-3.1c-0.9-0.6-1.9-0.9-3.1-0.9c-2.3,0-4.1,1.1-5.2,3.2c-0.5,1-1.3,1.4-2.3,1.4c-0.5,0-0.9-0.1-1.3-0.4
			c-0.8-0.4-1.2-1.1-1.2-2s0.4-1.8,1.1-2.8c0.8-1,1.8-1.9,3-2.5c1.8-1,3.8-1.5,6-1.5c2.4,0,4.5,0.6,6.3,1.7c2.6,1.6,3.9,3.9,3.9,6.8
			c0,2-0.7,3.9-2.1,5.5c-0.9,1-2.6,2.5-5.2,4.5C120.7,98,118.2,100.1,116.4,102.1z"/>
	</g>
</g>
<rect x="19.5" y="33.4" class="st2" width="119.6" height="22.1"/>
<g class="st3">
	<path d="M32.1,34.9v17.2c0,0.4-0.1,0.7-0.4,1c-0.4,0.4-0.8,0.6-1.5,0.6c-0.7,0-1.2-0.2-1.6-0.7c-0.2-0.2-0.2-0.5-0.2-0.8V34.9
		c0-0.6,0.2-1,0.7-1.2c0.3-0.2,0.7-0.3,1.1-0.3c0.5,0,0.9,0.1,1.2,0.4C31.9,34,32.1,34.4,32.1,34.9z"/>
	<path d="M45.6,42.9c1.1-1.5,2.7-2.3,4.8-2.3c1.5,0,2.9,0.4,4,1.3c1.6,1.2,2.4,2.9,2.4,5.1c0,1.7-0.5,3.2-1.5,4.4
		c-1.3,1.6-3.2,2.5-5.5,2.5s-4.2-0.8-5.6-2.3c-1.4-1.6-2.1-3.6-2.1-6.1c0-2.3,0.7-4.6,2.2-6.8c1.6-2.4,3.6-4.3,6.1-5.4
		c0.4-0.2,0.8-0.3,1.1-0.3c0.6,0,1,0.2,1.3,0.7c0.2,0.3,0.3,0.6,0.3,0.9c0,0.7-0.4,1.2-1.2,1.6c-2.1,1.1-3.9,2.6-5.2,4.6
		c-0.4,0.7-0.8,1.3-1,2C45.7,42.7,45.6,42.7,45.6,42.9z M49.7,43.3c-0.9,0-1.7,0.3-2.4,0.9c-0.9,0.7-1.3,1.7-1.3,2.8
		c0,1.1,0.3,2,0.9,2.7c0.7,0.8,1.6,1.2,2.8,1.2c1.1,0,2-0.4,2.6-1.2c0.6-0.7,0.9-1.6,0.9-2.7c0-1.4-0.5-2.4-1.4-3.1
		C51.2,43.5,50.5,43.3,49.7,43.3z"/>
	<path d="M79.8,34.9v12.6c0,1.7-0.5,3.1-1.4,4.2c-1.1,1.4-2.7,2.1-4.9,2.1c-2,0-3.6-0.7-4.8-2.1c-1-1.1-1.4-2.2-1.4-3.3
		c0-0.6,0.2-1,0.6-1.4c0.4-0.3,0.8-0.4,1.3-0.4c0.6,0,1.1,0.2,1.4,0.7c0.1,0.1,0.2,0.4,0.4,0.9c0.5,1.4,1.4,2.1,2.6,2.1
		c1,0,1.8-0.4,2.2-1.3c0.2-0.4,0.3-1,0.3-1.6V34.9c0-0.6,0.3-1,0.8-1.3c0.3-0.1,0.7-0.2,1-0.2c0.5,0,0.9,0.1,1.3,0.4
		C79.6,34,79.8,34.4,79.8,34.9z"/>
	<path d="M88.4,34.9v10.5c0,3.5,1.5,5.2,4.6,5.2s4.6-1.7,4.6-5.2V34.9c0-0.4,0.2-0.8,0.5-1c0.4-0.3,0.8-0.4,1.4-0.4
		c0.6,0,1.1,0.2,1.5,0.5c0.3,0.3,0.4,0.6,0.4,0.9v11c0,2.1-0.4,3.7-1.3,4.8c-0.4,0.5-0.8,0.9-1.4,1.4c-1.6,1.2-3.4,1.8-5.6,1.8
		c-2.5,0-4.5-0.8-6.1-2.3c-0.9-0.8-1.5-1.9-1.8-3.1c-0.2-0.8-0.3-1.7-0.3-2.7v-11c0-0.6,0.3-1,0.8-1.2c0.3-0.2,0.7-0.2,1.1-0.2
		c0.5,0,0.9,0.1,1.2,0.4C88.2,34,88.4,34.4,88.4,34.9z"/>
	<path d="M108.2,36.4h-2c-0.3,0-0.5-0.1-0.7-0.3c-0.3-0.3-0.4-0.6-0.4-1.1c0-0.5,0.2-0.9,0.6-1.2c0.2-0.1,0.4-0.2,0.6-0.2h7.6
		c0.3,0,0.6,0.1,0.8,0.3c0.3,0.3,0.4,0.6,0.4,1.1c0,0.5-0.2,0.9-0.6,1.2c-0.2,0.1-0.4,0.2-0.6,0.2h-2v14.3h2c0.3,0,0.6,0.1,0.8,0.3
		c0.3,0.3,0.4,0.6,0.4,1.1c0,0.5-0.2,0.9-0.6,1.2c-0.2,0.1-0.4,0.2-0.6,0.2h-7.6c-0.3,0-0.5-0.1-0.7-0.3c-0.3-0.3-0.4-0.6-0.4-1.1
		c0-0.5,0.2-0.9,0.6-1.2c0.2-0.1,0.4-0.2,0.6-0.2h2V36.4z"/>
	<path d="M132,48l-0.2-13.2c0-0.4,0.1-0.7,0.4-0.9c0.4-0.3,0.8-0.5,1.4-0.5c0.6,0,1.1,0.2,1.5,0.6c0.2,0.2,0.3,0.5,0.3,0.8v16.4
		c0,0.7-0.2,1.3-0.6,1.7c-0.4,0.5-0.9,0.7-1.6,0.7c-1.1,0-1.9-0.5-2.6-1.6l-8.3-14.4l0.2,14.6c0,0.4-0.1,0.8-0.4,1
		c-0.4,0.3-0.8,0.5-1.4,0.5c-0.7,0-1.2-0.2-1.6-0.7c-0.1-0.2-0.2-0.5-0.2-0.8V36c0-1,0.5-1.8,1.4-2.3c0.4-0.2,0.9-0.3,1.4-0.3
		c1.3,0,2.2,0.6,2.9,1.8L132,48z"/>
</g>
</svg>
