<?xml version="1.0" encoding="utf-8"?>
<!-- Generator: Adobe Illustrator 25.1.0, SVG Export Plug-In . SVG Version: 6.00 Build 0)  -->
<svg version="1.1" id="Calque_1" xmlns="http://www.w3.org/2000/svg" xmlns:xlink="http://www.w3.org/1999/xlink" x="0px" y="0px"
	 viewBox="0 0 50 50" style="enable-background:new 0 0 50 50;" xml:space="preserve">
<style type="text/css">
	.st0{clip-path:url(#SVGID_2_);enable-background:new    ;}
	.st1{clip-path:url(#SVGID_4_);fill:#DEBFAA;}
</style>
<g>
	<defs>
		<rect id="SVGID_1_" width="50" height="50"/>
	</defs>
	<clipPath id="SVGID_2_">
		<use xlink:href="#SVGID_1_"  style="overflow:visible;"/>
	</clipPath>
	<g class="st0">
		<g>
			<defs>
				<rect id="SVGID_3_" width="50" height="50"/>
			</defs>
			<clipPath id="SVGID_4_">
				<use xlink:href="#SVGID_3_"  style="overflow:visible;"/>
			</clipPath>
			<path class="st1" d="M43.75,0H6.25C2.8,0,0,2.8,0,6.25v37.5C0,47.2,2.8,50,6.25,50H25V32.81h-6.25V25H25v-6.25
				c0-5.18,4.2-9.38,9.38-9.38h6.25v7.81H37.5c-1.72,0-3.12-0.16-3.12,1.56V25h7.81l-3.12,7.81h-4.69V50h9.38
				C47.2,50,50,47.2,50,43.75V6.25C50,2.8,47.2,0,43.75,0z"/>
		</g>
	</g>
</g>
</svg>
