<?xml version="1.0" encoding="utf-8"?>
<!-- Generator: Adobe Illustrator 25.1.0, SVG Export Plug-In . SVG Version: 6.00 Build 0)  -->
<svg version="1.1" id="Calque_1" xmlns="http://www.w3.org/2000/svg" xmlns:xlink="http://www.w3.org/1999/xlink" x="0px" y="0px"
	 viewBox="0 0 50 50" style="enable-background:new 0 0 50 50;" xml:space="preserve">
<style type="text/css">
	.st0{clip-path:url(#SVGID_2_);enable-background:new    ;}
	.st1{clip-path:url(#SVGID_4_);fill:#DEBFAA;}
</style>
<g>
	<defs>
		<rect id="SVGID_1_" width="50" height="50"/>
	</defs>
	<clipPath id="SVGID_2_">
		<use xlink:href="#SVGID_1_"  style="overflow:visible;"/>
	</clipPath>
	<g class="st0">
		<g>
			<defs>
				<rect id="SVGID_3_" width="50" height="50"/>
			</defs>
			<clipPath id="SVGID_4_">
				<use xlink:href="#SVGID_3_"  style="overflow:visible;"/>
			</clipPath>
			<path class="st1" d="M39,14.55c-2.23,0-4.04-1.81-4.04-4.04S36.77,6.47,39,6.47s4.04,1.81,4.04,4.04S41.23,14.55,39,14.55z
				 M25,38.67c-7.54,0-13.67-6.13-13.67-13.67S17.46,11.33,25,11.33S38.67,17.46,38.67,25S32.54,38.67,25,38.67z M36.47,0H13.53
				C6.07,0,0,6.07,0,13.53v22.93C0,43.93,6.07,50,13.53,50h22.93C43.93,50,50,43.93,50,36.47V13.53C50,6.07,43.93,0,36.47,0z"/>
			<circle class="st1" cx="25" cy="25" r="10.74"/>
			<path class="st1" d="M39,9.4c-0.61,0-1.11,0.5-1.11,1.11s0.5,1.11,1.11,1.11c0.61,0,1.11-0.5,1.11-1.11
				C40.11,9.9,39.61,9.4,39,9.4z"/>
		</g>
	</g>
</g>
</svg>
