<?xml version="1.0" encoding="utf-8"?>
<!-- Generator: Adobe Illustrator 25.1.0, SVG Export Plug-In . SVG Version: 6.00 Build 0)  -->
<svg version="1.1" id="Calque_1" xmlns="http://www.w3.org/2000/svg" xmlns:xlink="http://www.w3.org/1999/xlink" x="0px" y="0px"
	 viewBox="0 0 50 50" style="enable-background:new 0 0 50 50;" xml:space="preserve">
<style type="text/css">
	.st0{clip-path:url(#SVGID_2_);enable-background:new    ;}
	.st1{clip-path:url(#SVGID_4_);fill:#DEBFAA;}
</style>
<g>
	<defs>
		<rect id="SVGID_1_" width="50" height="50"/>
	</defs>
	<clipPath id="SVGID_2_">
		<use xlink:href="#SVGID_1_"  style="overflow:visible;"/>
	</clipPath>
	<g class="st0">
		<g>
			<defs>
				<rect id="SVGID_3_" width="50" height="50"/>
			</defs>
			<clipPath id="SVGID_4_">
				<use xlink:href="#SVGID_3_"  style="overflow:visible;"/>
			</clipPath>
			<path class="st1" d="M42.29,41.86h-7.52V29.79c0-3.41-1.26-5.11-3.78-5.11c-0.95,0-1.76,0.27-2.41,0.8
				c-0.65,0.53-1.14,1.18-1.46,1.94c-0.15,0.39-0.23,1-0.23,1.82v12.63h-7.52c0.07-13.63,0.07-21.16,0-22.59h7.52v3.19
				c1.58-2.47,3.83-3.71,6.74-3.71c2.6,0,4.7,0.86,6.28,2.57c1.58,1.71,2.38,4.24,2.38,7.58L42.29,41.86L42.29,41.86L42.29,41.86z
				 M14.55,15.09c-0.78,0.75-1.81,1.12-3.09,1.12h-0.03c-1.24,0-2.24-0.37-3.01-1.12c-0.77-0.75-1.16-1.68-1.16-2.78
				c0-1.13,0.4-2.06,1.19-2.8c0.79-0.74,1.82-1.11,3.08-1.11s2.27,0.37,3.03,1.11c0.76,0.74,1.15,1.67,1.17,2.8
				C15.72,13.41,15.33,14.34,14.55,15.09z M15.23,41.86H7.71V19.27h7.52V41.86L15.23,41.86z M47.25,2.75C45.42,0.92,43.21,0,40.63,0
				H9.38C6.79,0,4.58,0.92,2.75,2.75C0.92,4.58,0,6.79,0,9.37v31.25c0,2.58,0.92,4.79,2.75,6.62C4.58,49.08,6.79,50,9.38,50h31.25
				c2.58,0,4.79-0.92,6.62-2.75c1.83-1.83,2.75-4.04,2.75-6.62V9.37C50,6.79,49.08,4.58,47.25,2.75z"/>
		</g>
	</g>
</g>
</svg>
